<svg width="25" height="25" viewBox="0 0 25 25" fill="none" xmlns="http://www.w3.org/2000/svg">
<path d="M10.8689 8.67125V10.3925H9.60889V12.4962H10.8689V18.75H13.4589V12.4962H15.1964C15.1964 12.4962 15.3601 11.4875 15.4389 10.3837H13.4689V8.94625C13.4689 8.73 13.7514 8.44125 14.0314 8.44125H15.4414V6.25H13.5226C10.8051 6.25 10.8689 8.35625 10.8689 8.67125Z" fill="black"/>
<path d="M5 2.5C4.33696 2.5 3.70107 2.76339 3.23223 3.23223C2.76339 3.70107 2.5 4.33696 2.5 5V20C2.5 20.663 2.76339 21.2989 3.23223 21.7678C3.70107 22.2366 4.33696 22.5 5 22.5H20C20.663 22.5 21.2989 22.2366 21.7678 21.7678C22.2366 21.2989 22.5 20.663 22.5 20V5C22.5 4.33696 22.2366 3.70107 21.7678 3.23223C21.2989 2.76339 20.663 2.5 20 2.5H5ZM5 0H20C21.3261 0 22.5979 0.526784 23.5355 1.46447C24.4732 2.40215 25 3.67392 25 5V20C25 21.3261 24.4732 22.5979 23.5355 23.5355C22.5979 24.4732 21.3261 25 20 25H5C3.67392 25 2.40215 24.4732 1.46447 23.5355C0.526784 22.5979 0 21.3261 0 20V5C0 3.67392 0.526784 2.40215 1.46447 1.46447C2.40215 0.526784 3.67392 0 5 0Z" fill="black"/>
</svg>
